<svg version="1.0" xmlns="http://www.w3.org/2000/svg"
 width="512.000000pt" height="512.000000pt" viewBox="0 0 512.000000 512.000000"
 preserveAspectRatio="xMidYMid meet">
  <circle cx="255" cy="255" r="250" fill="#fff" />
  <g transform="translate(0.000000,512.000000) scale(0.100000,-0.100000)"
  fill="#0ea5e9" stroke="none">
  <path d="M2405 5109 c-799 -46 -1537 -474 -1981 -1148 -217 -331 -345 -678
  -399 -1086 -24 -177 -22 -481 4 -663 105 -736 513 -1381 1130 -1788 331 -217
  678 -345 1086 -399 177 -24 481 -22 663 4 736 105 1381 513 1788 1130 217 331
  345 678 399 1086 24 177 22 481 -4 663 -105 736 -513 1381 -1130 1788 -121 79
  -299 174 -426 227 -230 95 -535 168 -768 182 -188 11 -235 12 -362 4z m872
  -1095 c156 -32 268 -107 320 -212 36 -73 44 -212 18 -312 -33 -131 -165 -351
  -243 -406 -59 -41 -216 71 -255 183 l-18 51 79 79 c43 43 94 100 112 128 104
  152 107 298 8 352 -54 29 -194 24 -283 -11 -86 -33 -197 -101 -282 -174 -251
  -213 -557 -754 -657 -1162 -99 -403 -95 -785 10 -993 36 -70 117 -153 169
  -173 41 -15 47 -15 97 1 166 55 404 211 676 444 68 58 139 118 157 134 l33 27
  21 -33 c12 -19 21 -38 21 -42 0 -25 -250 -315 -395 -458 -130 -129 -227 -209
  -350 -289 -88 -57 -91 -58 -161 -58 -39 0 -109 7 -155 15 -400 70 -628 317
  -689 745 -14 98 -14 350 0 470 67 566 375 1113 807 1435 106 79 338 196 448
  226 183 50 373 62 512 33z"/>
  </g>
</svg>
